<svg fill="#1C2033" width="52" height="52" viewBox="0 0 64 64" xmlns="http://www.w3.org/2000/svg">
<path d="M12.2016 32.1004L11.1016 31.0004C7.40156 27.3004 6.30156 22.1004 7.60156 17.3004C3.90156 16.5004 1.10156 13.1004 1.10156 9.10039C1.10156 4.60039 4.80156 0.900391 9.30156 0.900391C13.5016 0.900391 16.9016 3.90039 17.5016 7.80039C22.0016 6.70039 26.8016 7.90039 30.3016 11.5004L30.7016 11.9004L24.6016 18.0004L24.2016 17.6004C22.2016 15.6004 19.0016 15.6004 17.0016 17.6004C15.0016 19.6004 15.0016 22.8004 17.0016 24.8004L30.7016 38.5004L24.6016 44.6004L18.1016 38.4004L12.2016 32.1004Z"/>
<path d="M19.1016 25.4002L25.6016 18.9002L31.7016 12.8002L32.8016 11.7002C36.5016 8.00019 41.7016 6.9002 46.3016 8.2002C46.9016 4.1002 50.4016 1.2002 54.5016 1.2002C59.0016 1.2002 62.7016 4.9002 62.7016 9.4002C62.7016 13.6002 59.6016 17.0002 55.5016 17.6002C56.9016 22.2002 55.6016 27.5002 52.0016 31.0002L51.6016 31.4002L45.7016 25.3002L46.1016 24.9002C48.1016 22.9002 48.1016 19.7002 46.1016 17.7002C44.1016 15.7002 40.9016 15.7002 38.9016 17.7002L37.9016 19.0002L31.8016 25.0002L25.3016 31.5002L19.1016 25.4002Z"/>
<path d="M46.6008 56.1996C41.8008 57.5996 36.6008 56.4996 32.9008 52.7996L32.5008 52.3996L38.6008 46.2996L39.0008 46.6996C41.0008 48.6996 44.2008 48.6996 46.2008 46.6996C48.2008 44.6996 48.2008 41.4996 46.2008 39.4996L44.9008 38.3996L38.8008 32.1996L32.3008 25.6996L38.4008 19.5996L52.2008 33.3996C55.7008 36.8996 57.0008 41.8996 55.9008 46.3996C60.0008 46.9996 62.9008 50.4996 62.9008 54.5996C62.9008 59.0996 59.2008 62.7996 54.7008 62.7996C50.8008 62.8996 47.4008 59.8996 46.6008 56.1996Z"/>
<path d="M44.2993 38.9998L37.7993 45.4998L31.6992 51.5998L30.5992 52.6998C27.0992 56.1998 22.0992 57.4998 17.5992 56.3998C16.5992 60.1998 13.3993 62.9998 9.39922 62.9998C4.89922 62.9998 1.19922 59.2998 1.19922 54.7998C1.19922 50.9998 3.89922 47.5998 7.49922 46.7998C6.39922 42.0998 7.49922 37.1998 10.9993 33.6998L11.3993 33.2998L17.4993 39.3998L17.0992 39.7998C15.0992 41.7998 15.0992 44.9998 17.0992 46.9998C19.0992 48.9998 22.2992 48.9998 24.2992 46.9998L25.3993 45.8998L31.4993 39.7998L37.9993 33.2998L44.2993 38.9998Z"/>
</svg>
