<svg fill="#1C2033" width="52" height="52" viewBox="0 0 64 64" xmlns="http://www.w3.org/2000/svg">
<path d="M51.9019 11.8998C50.9019 5.7998 46.1019 1.7998 39.7019 1.7998H19.4019C18.4019 1.7998 17.5019 2.4998 17.2019 3.4998L5.6019 50.7998C5.4019 51.4998 5.6019 52.1998 6.0019 52.6998C6.4019 53.1998 7.1019 53.5998 7.8019 53.5998H13.4019L12.0019 59.4998C11.8019 60.1998 12.0019 60.8998 12.4019 61.3998C12.8019 61.8998 13.5019 62.2998 14.2019 62.2998H28.6019C29.6019 62.2998 30.6019 61.5998 30.8019 60.5998L35.1019 41.9998H39.6019C43.7019 41.9998 47.8019 40.3998 51.2019 37.4998C54.6019 34.6998 57.0019 30.7998 58.0019 26.6998C59.5019 20.2998 57.0019 14.3998 51.9019 11.8998ZM21.2019 6.2998H39.8019C44.2019 6.2998 47.3019 9.1998 47.6019 13.4998C47.7019 14.8998 47.6019 15.9998 47.3019 16.9998C46.6019 19.9998 44.7019 23.0998 42.0019 25.2998C39.4019 27.4998 36.3019 28.6998 33.3019 28.6998H27.1019C26.1019 28.6998 25.2019 29.3998 24.9019 30.3998L20.4019 48.9998H10.7019L21.2019 6.2998ZM53.7019 25.6998C53.0019 28.7998 51.1019 31.7998 48.4019 33.9998C45.8019 36.1998 42.7019 37.3998 39.7019 37.3998H33.4019C32.4019 37.3998 31.4019 38.0998 31.2019 39.0998L26.9019 57.6998H17.0019L18.0019 53.4998H22.1019C23.1019 53.4998 24.0019 52.7998 24.3019 51.7998L28.8019 33.1998H33.2019C37.3019 33.1998 41.4019 31.5998 44.9019 28.6998C48.3019 25.7998 50.7019 21.9998 51.7019 17.9998C51.8019 17.6998 51.8019 17.4998 51.9019 17.1998C53.7019 19.2998 54.5019 22.2998 53.7019 25.6998Z"/>
</svg>
