<svg fill="#1C2033" width="52" height="52" viewBox="0 0 64 64" xmlns="http://www.w3.org/2000/svg">
<path d="M43.6218 52.6906C43.5657 49.538 41.0601 46.9932 38.0122 46.9932C34.8895 46.9932 32.3838 49.538 32.4024 52.6906C32.4024 55.8051 34.8895 58.3499 38.0122 58.3879C41.0601 58.3499 43.5657 55.8051 43.6218 52.6906ZM34.9081 52.6906C34.8521 50.6965 36.2545 49.0822 38.0122 49.1012C39.6951 49.1012 41.0788 50.6965 41.0975 52.6906C41.0788 54.6466 39.6951 56.2609 38.0122 56.2989C36.2545 56.2799 34.8521 54.6656 34.9081 52.6906Z"/>
<path d="M49.9594 49.3863H53.2129V47.4492H44.2188V49.3863H47.6033V58.0843H49.9594V49.3863Z"/>
<path d="M56.0197 55.6914H60.3017L61.1805 58.0843H63.9854L59.7033 47.4492H56.7676L52.3359 58.0843H55.1408L56.0197 55.6914ZM58.2448 49.994L59.7033 53.8872H56.7489L58.2261 49.994H58.2448Z"/>
<path d="M4.20366 58.0843H6.57843V49.3863H9.81334V47.4492H0.96875V49.3863H4.20366V58.0843Z"/>
<path d="M21.6335 52.6906C21.596 49.538 19.0904 46.9932 16.0238 46.9932C12.9197 46.9932 10.4328 49.538 10.4141 52.6906C10.4141 55.8051 12.9197 58.3499 16.0238 58.3879C19.0904 58.3499 21.596 55.8051 21.6335 52.6906ZM12.9384 52.6906C12.901 50.6965 14.2848 49.0822 16.0424 49.1012C17.744 49.1012 19.1465 50.6965 19.1465 52.6906C19.1465 54.6846 17.7627 56.2609 16.0424 56.2989C14.3035 56.2799 12.901 54.6656 12.9384 52.6906Z"/>
<path d="M26.9433 58.0843H28.1213V54.0392L32.2538 47.4492H29.5985L26.9433 51.9501L24.4377 47.4492H21.6328L25.7652 54.0392V58.0843H26.9433Z"/>
<path d="M31.8427 42.436C47.8116 42.436 60.8261 34.1749 60.8261 24.0336C60.8261 13.8924 47.8303 5.6123 31.8427 5.6123C15.8551 5.6123 2.85938 13.8734 2.85938 24.0336C2.85938 34.1939 15.8551 42.436 31.8427 42.436ZM31.8427 6.52387C47.3254 6.52387 59.9285 14.3862 59.9285 24.0336C59.9285 33.6811 47.3254 41.5434 31.8427 41.5434C16.36 41.5434 3.75694 33.7001 3.75694 24.0336C3.75694 14.3672 16.36 6.52387 31.8427 6.52387Z"/>
<path d="M24.7921 19.2475L25.2221 19.3234L25.2969 18.8677C25.9888 14.6326 27.4846 11.3092 29.4106 9.75196L30.5139 8.85938L29.1115 8.93534C22.3238 9.35314 17.406 11.1763 16.5645 13.5881C16.4897 13.835 16.4336 14.1009 16.4336 14.3478C16.4336 14.7466 16.5458 15.1644 16.7702 15.5442C17.7051 17.1775 20.6221 18.5068 24.7921 19.2285M17.4059 13.892C18.0417 12.0499 22.3986 10.4546 27.9708 9.92288C26.3815 11.746 25.166 14.6896 24.5303 18.2599C20.9027 17.5763 18.3222 16.3988 17.5556 15.0884C17.4059 14.8415 17.3312 14.5947 17.3312 14.3478C17.3312 14.1959 17.3499 14.0439 17.4059 13.892Z"/>
<path d="M27.8786 19.1527L27.7852 19.6465L28.2713 19.6845C29.4306 19.7794 30.6461 19.8174 31.8428 19.8174C33.0396 19.8174 34.255 19.7604 35.4143 19.6845L35.9005 19.6465L35.8256 19.1527C35.1525 15.3355 33.6753 13.0566 31.8428 13.0566C30.0103 13.0566 28.5331 15.3355 27.8599 19.1527M31.8428 13.9491C33.0769 13.9491 34.2363 15.8483 34.8533 18.7919C33.8623 18.8488 32.8712 18.9058 31.8428 18.9058C30.8143 18.9058 29.8233 18.8678 28.8323 18.7919C29.4306 15.8293 30.5899 13.9491 31.8428 13.9491Z"/>
<path d="M38.385 18.8862L38.4598 19.342L38.8899 19.266C43.0597 18.5444 45.9767 17.196 46.9116 15.5818C47.267 14.955 47.3417 14.2714 47.1173 13.6257C46.2759 11.2328 41.3581 9.39069 34.5704 8.97288L33.168 8.87793L34.2712 9.77051C36.1972 11.3277 37.6931 14.6702 38.385 18.8862ZM46.2947 13.9105C46.3507 14.0625 46.3694 14.2144 46.3694 14.3663C46.3694 14.6132 46.2947 14.8601 46.145 15.107C45.3784 16.4174 42.7792 17.5948 39.1516 18.2785C38.5158 14.7082 37.3004 11.7645 35.711 9.94143C41.2646 10.4542 45.6215 12.0684 46.276 13.9105"/>
<path d="M28.8692 39.2646L30.2156 39.3596L29.1871 38.467C26.5319 36.1691 24.8863 30.6807 24.8863 24.1857V22.6474L24.5311 22.5715C18.1547 21.413 13.6296 18.6783 12.9751 15.6397L12.8256 14.918L12.2459 15.3928C9.19797 17.9946 7.58984 21.0712 7.58984 24.2996C7.58984 31.9151 16.7336 38.3341 28.8506 39.2646M12.3207 16.5323C13.48 19.6088 17.8369 22.1726 23.9889 23.3691C23.9889 23.7299 23.9889 24.1667 23.9889 24.1667C23.9889 30.2059 25.3912 35.4094 27.7286 38.2201C16.6775 37.0237 8.48742 31.1554 8.48742 24.2807C8.48742 21.508 9.81502 18.8492 12.3207 16.5323Z"/>
<path d="M36.1998 23.6344V22.9697L35.7137 23.0077C34.4608 23.1216 33.1519 23.1786 31.8617 23.1786C30.5714 23.1786 29.2625 23.1216 28.0096 23.0077L27.5234 22.9697V23.4635V23.6344C27.5234 29.6735 29.3934 34.2504 31.8617 34.2504C34.3299 34.2504 36.1998 29.6925 36.1998 23.6344ZM31.8617 33.3388C30.2162 33.3388 28.4771 29.5786 28.4023 23.9572C29.543 24.0332 30.7023 24.0902 31.8617 24.0902C33.0209 24.0902 34.1803 24.0332 35.3023 23.9572C35.2462 29.5786 33.4884 33.3388 31.8617 33.3388Z"/>
<path d="M38.7793 22.6277V24.166C38.798 30.68 37.1524 36.1494 34.4972 38.4473L33.4688 39.3399L34.815 39.245C46.9507 38.3144 56.0757 31.8954 56.0757 24.28C56.0757 21.0515 54.4676 17.9559 51.4197 15.3731L50.8587 14.8984L50.6905 15.62C50.0547 18.6776 45.5109 21.3933 39.1345 22.5518L38.7606 22.6277H38.7793ZM51.3636 16.5316C53.8693 18.8485 55.1969 21.5073 55.1969 24.28C55.1969 31.1547 47.0067 37.023 35.9557 38.2194C38.2744 35.4087 39.6955 30.2052 39.6955 24.166C39.6955 24.166 39.6955 23.7292 39.6955 23.3684C45.8474 22.172 50.2043 19.6082 51.3824 16.5316"/>
</svg>
