<svg fill="#1C2033" width="52" height="52" viewBox="0 0 64 64" xmlns="http://www.w3.org/2000/svg">
<path d="M34.2549 26.1516C35.8406 26.654 36.8784 27.7321 37.3682 29.3856V38.6298H44.4123V38.6203H45.496V38.6012H45.597V22.9176C44.7889 20.1891 43.0775 18.4083 40.4632 17.5752H8.93462C6.31969 18.4052 4.60841 20.186 3.80078 22.9176V55.8876C4.60896 58.616 6.35698 60.3427 9.04482 61.0678H40.353C43.0408 60.3427 44.7889 58.616 45.597 55.8876V47.2921H37.3682V49.3623C36.8784 51.0159 35.8191 52.0621 34.1906 52.5009H15.2164C13.5878 52.0621 12.5286 51.0159 12.0388 49.3623V29.3856C12.5286 27.7321 13.5664 26.654 15.1521 26.1516H34.2549Z"/>
<path d="M60.9096 8.27499C60.1014 5.54657 58.3901 3.76578 55.7757 2.93262H24.2472C21.6328 3.76578 19.9216 5.54657 19.1133 8.27499V16.6606H27.3422V14.7431C27.832 13.0895 28.8697 12.0115 30.4556 11.509H49.5582C51.144 12.0115 52.1818 13.0895 52.6715 14.7431V34.7197C52.1818 36.3733 51.1225 37.4195 49.4939 37.8583H30.5199C28.8912 37.4195 27.832 36.3733 27.3422 34.7197V25.237H19.1133V41.245C19.9216 43.9734 21.6695 45.7002 24.3573 46.4252H55.6656C58.3534 45.7002 60.1014 43.9734 60.9096 41.245V8.27499Z"/>
</svg>
