<svg fill="#1C2033" width="52" height="52" viewBox="0 0 64 64" xmlns="http://www.w3.org/2000/svg">
<path d="M60.655 18.4008C59.9658 18.0008 59.0796 18.0008 58.3904 18.5008L47.855 25.4008C46.9689 26.0008 46.4766 26.9008 46.4766 28.0008V36.0008C46.4766 37.0008 46.9689 38.0008 47.855 38.6008L58.3904 45.5008C58.7843 45.7008 59.1781 45.9009 59.5719 45.9009C59.9658 45.9009 60.2612 45.8008 60.655 45.6008C61.3443 45.2008 61.8366 44.4008 61.8366 43.6008V20.4008C61.8366 19.5008 61.3443 18.8008 60.655 18.4008ZM57.4058 39.5008L50.9073 35.2008V28.7008L57.4058 24.4008V39.5008Z"/>
<path d="M30.6234 15.9004H4.43258C3.25105 15.9004 2.16797 16.9004 2.16797 18.2004V37.0004C2.16797 43.1004 7.18951 48.1004 13.3926 48.1004H39.5834C40.7649 48.1004 41.848 47.1004 41.848 45.8004V27.0004C41.848 20.9004 36.8264 15.9004 30.6234 15.9004ZM37.4172 43.6004H13.3926C9.65105 43.6004 6.59874 40.6004 6.59874 37.0004V20.4004H30.6234C34.3649 20.4004 37.4172 23.4004 37.4172 27.0004V43.6004Z"/>
</svg>
